<?xml version="1.0" standalone="no"?>
<!DOCTYPE svg PUBLIC "-//W3C//DTD SVG 20010904//EN"
 "http://www.w3.org/TR/2001/REC-SVG-20010904/DTD/svg10.dtd">
<svg version="1.0" xmlns="http://www.w3.org/2000/svg"
 width="645.000000pt" height="387.000000pt" viewBox="0 0 645.000000 387.000000"
 preserveAspectRatio="xMidYMid meet">

<g transform="translate(0.000000,387.000000) scale(0.100000,-0.100000)"
fill="#000000" stroke="none">
<path d="M1686 2959 c-380 -55 -720 -348 -831 -714 -35 -117 -45 -185 -45
-311 0 -291 111 -551 319 -747 412 -389 1051 -380 1443 19 94 96 142 163 199
279 140 285 140 615 0 900 -57 116 -105 183 -199 279 -227 231 -560 342 -886
295z m725 -579 c54 -27 119 -76 119 -89 0 -8 -12 -27 -26 -42 l-25 -27 -50 34
c-78 52 -174 57 -259 14 -113 -58 -176 -229 -151 -412 19 -138 75 -226 173
-268 63 -27 157 -24 210 7 l33 19 3 122 3 122 -86 0 -85 0 0 45 0 45 140 0
140 0 0 -189 0 -190 -33 -25 c-71 -54 -124 -71 -232 -71 -87 0 -107 3 -157 27
-153 71 -231 215 -232 428 0 182 56 315 167 397 72 53 145 74 243 69 44 -2 92
-9 105 -16z m-668 -4 c5 -1 -53 -74 -127 -163 -75 -89 -136 -166 -136 -170 0
-4 69 -129 154 -278 l155 -270 -61 -3 c-34 -2 -64 1 -68 5 -4 4 -63 108 -131
231 -68 122 -126 221 -130 220 -4 -2 -39 -41 -78 -88 l-71 -85 0 -142 0 -143
-60 0 -60 0 0 445 0 445 60 0 60 0 2 -221 3 -221 188 224 188 225 52 -4 c29
-3 56 -5 60 -7z"/>
<path d="M5235 2387 c-80 -27 -142 -74 -172 -131 -21 -41 -22 -143 0 -182 38
-72 78 -98 324 -209 108 -49 136 -79 137 -144 1 -57 -21 -94 -75 -126 -27 -16
-52 -20 -119 -20 -72 0 -94 4 -147 29 -34 15 -70 37 -79 47 -9 11 -23 19 -31
19 -16 0 -62 -49 -63 -67 0 -27 119 -96 205 -119 113 -31 263 -5 338 57 112
93 117 270 9 359 -20 16 -102 58 -181 92 -170 74 -221 114 -221 171 0 50 15
78 57 107 32 22 47 25 122 25 74 0 93 -4 138 -27 28 -15 54 -32 58 -38 11 -17
22 -11 50 26 l28 37 -24 19 c-13 11 -52 33 -87 50 -50 24 -79 31 -145 34 -51
3 -97 -1 -122 -9z"/>
<path d="M3390 2335 l0 -45 115 0 115 0 -2 -352 -3 -353 -112 -3 -113 -3 0
-44 0 -45 285 0 285 0 0 45 0 44 -112 3 -113 3 0 350 0 350 113 3 112 3 0 44
0 45 -285 0 -285 0 0 -45z"/>
<path d="M4180 1935 l0 -445 56 0 57 0 -5 364 -5 365 67 -197 c106 -311 99
-296 142 -300 27 -2 39 2 46 15 15 28 128 349 152 431 12 41 23 72 25 70 2 -1
-1 -50 -5 -108 -5 -58 -9 -225 -10 -372 l0 -266 51 -4 c28 -1 53 -1 55 1 2 2
4 204 4 448 l0 444 -72 -3 -72 -3 -79 -245 c-44 -135 -81 -252 -84 -260 -3 -8
-44 103 -91 248 l-86 262 -73 0 -73 0 0 -445z"/>
</g>
</svg>
